<svg xmlns="http://www.w3.org/2000/svg" viewBox="0 0 640 480">
  <path fill="#039" d="M0 0h640v480H0z"/>
  <g fill="#fc0" transform="translate(320 240)">
    <path d="m0-154 9 28h29l-23 17 9 28-24-17-24 17 9-28-23-17h29z"/>
    <path d="m77-133 9 28h29l-23 17 9 28-24-17-24 17 9-28-23-17h29z"/>
    <path d="m133-77 9 28h29l-23 17 9 28-24-17-24 17 9-28-23-17h29z"/>
    <path d="m154 0 9 28h29l-23 17 9 28-24-17-24 17 9-28-23-17h29z"/>
    <path d="m133 77 9 28h29l-23 17 9 28-24-17-24 17 9-28-23-17h29z"/>
    <path d="m77 133 9 28h29l-23 17 9 28-24-17-24 17 9-28-23-17h29z"/>
    <path d="m0 154 9 28h29l-23 17 9 28-24-17-24 17 9-28-23-17h29z"/>
    <path d="m-77 133 9 28h29l-23 17 9 28-24-17-24 17 9-28-23-17h29z"/>
    <path d="m-133 77 9 28h29l-23 17 9 28-24-17-24 17 9-28-23-17h29z"/>
    <path d="m-154 0 9 28h29l-23 17 9 28-24-17-24 17 9-28-23-17h29z"/>
    <path d="m-133-77 9 28h29l-23 17 9 28-24-17-24 17 9-28-23-17h29z"/>
    <path d="m-77-133 9 28h29l-23 17 9 28-24-17-24 17 9-28-23-17h29z"/>
  </g>
</svg>
