<svg xmlns="http://www.w3.org/2000/svg" viewBox="0 0 640 480">
  <path fill="#de2910" d="M0 0h640v480H0z"/>
  <g fill="#fff" transform="translate(320 240)">
    <path d="M0-74c18 8 31 27 32 49-14-10-33-12-50-4 0-18 7-35 18-45"/>
    <path d="M70-18c1 19-9 38-26 52-4-17-17-31-35-36 11-15 29-25 48-26"/>
    <path d="M43 67c-17 7-39 4-58-8 14-10 22-28 20-47 18 3 33 15 42 31"/>
    <path d="M-43 67c9-16 8-36-2-53 20 1 38 12 49 28-12 13-30 22-47 25"/>
    <path d="M-70-18c18 1 35-6 47-21 6 19 2 40-11 56-13-13-31-19-49-16"/>
  </g>
</svg>
