<svg xmlns="http://www.w3.org/2000/svg" viewBox="0 0 640 480">
  <path fill="#fff" d="M0 0h640v480H0z"/>
  <g transform="translate(320 240)">
    <path fill="#cd2e3a" d="M0-88a88 88 0 0 1 0 176 44 44 0 0 1 0-88 44 44 0 0 0 0-88"/>
    <path fill="#0047a0" d="M0 88a88 88 0 0 1 0-176 44 44 0 0 1 0 88 44 44 0 0 0 0 88"/>
  </g>
  <g fill="#000">
    <path d="m102 96 20-30 92 62-20 30zm-26 38 20-30 92 62-20 30zm-26 38 20-30 92 62-20 30z"/>
    <path d="m438 314 20-30 92 62-20 30zm-26 38 20-30 92 62-20 30zm-26 38 20-30 92 62-20 30z"/>
    <path d="m438 128 20 30 92-62-20-30zm-39 26 20 30 92-62-20-30zm-39 26 20 30 92-62-20-30z"/>
    <path d="m102 352 20 30 92-62-20-30zm0-52 20 30 40-27-20-30zm52 14 20 30 40-27-20-30z"/>
  </g>
</svg>
