<svg xmlns="http://www.w3.org/2000/svg" viewBox="0 0 640 480">
  <path fill="#cc0001" d="M0 0h640v36.9H0zm0 73.8h640v36.9H0zm0 73.8h640v36.9H0zm0 73.8h640v36.9H0zm0 73.8h640v36.9H0zm0 73.8h640v36.9H0zm0 73.8h640V480H0z"/>
  <path fill="#fff" d="M0 36.9h640v36.9H0zm0 73.8h640v36.9H0zm0 73.8h640v36.9H0zm0 73.8h640v36.9H0zm0 73.8h640v36.9H0zm0 73.8h640v36.9H0z"/>
  <path fill="#010066" d="M0 0h320v258.5H0z"/>
  <path fill="#fc0" d="M211 67a77 77 0 1 0 0 124 62 62 0 1 1 0-124zm50 53 16-48 16 48h50l-40 29 16 48-42-30-41 30 15-48-40-29z"/>
</svg>
