<svg xmlns="http://www.w3.org/2000/svg" viewBox="0 0 640 480">
  <path fill="#00247d" d="M0 0h640v480H0z"/>
  <g transform="scale(.5)">
    <path fill="#012169" d="M0 0h640v480H0z"/>
    <path fill="#FFF" d="m75 0 244 181L562 0h78v62L400 241l240 178v61h-80L320 301 81 480H0v-60l239-178L0 64V0z"/>
    <path fill="#C8102E" d="m424 281 216 159v40L369 281zm-184 20 6 35L54 480H0zM640 0v3L391 191l2-44L590 0zM0 0l239 176h-60L0 42z"/>
    <path fill="#FFF" d="M241 0v480h160V0zM0 160v160h640V160z"/>
    <path fill="#C8102E" d="M0 193v96h640v-96zM273 0v480h96V0z"/>
  </g>
  <g fill="#fff">
    <path d="m438 108 10 31h32l-26 19 10 31-26-19-26 19 10-31-26-19h32z"/>
    <path d="m510 176 10 31h32l-26 19 10 31-26-19-26 19 10-31-26-19h32z"/>
    <path d="m420 256 10 31h32l-26 19 10 31-26-19-26 19 10-31-26-19h32z"/>
    <path d="m522 296 10 31h32l-26 19 10 31-26-19-26 19 10-31-26-19h32z"/>
  </g>
  <g fill="#c8102e">
    <path d="m438 114 8 24h25l-20 15 8 24-21-15-20 15 8-24-21-15h25z"/>
    <path d="m510 182 8 24h25l-20 15 8 24-21-15-20 15 8-24-21-15h25z"/>
    <path d="m420 262 8 24h25l-20 15 8 24-21-15-20 15 8-24-21-15h25z"/>
    <path d="m522 302 8 24h25l-20 15 8 24-21-15-20 15 8-24-21-15h25z"/>
  </g>
</svg>
