<svg xmlns="http://www.w3.org/2000/svg" viewBox="0 0 640 480">
  <path fill="#ef3340" d="M0 0h640v240H0z"/>
  <path fill="#fff" d="M0 240h640v240H0z"/>
  <path fill="#fff" d="M160 80a68 68 0 1 0 0 136 54 54 0 1 1 0-136z"/>
  <g fill="#fff">
    <path d="m210 102 7 20h21l-17 13 6 20-17-13-17 13 6-20-17-13h21z"/>
    <path d="m245 132 7 20h21l-17 13 6 20-17-13-17 13 6-20-17-13h21z"/>
    <path d="m232 174 7 20h21l-17 13 6 20-17-13-17 13 6-20-17-13h21z"/>
    <path d="m188 174 7 20h21l-17 13 6 20-17-13-17 13 6-20-17-13h21z"/>
    <path d="m175 132 7 20h21l-17 13 6 20-17-13-17 13 6-20-17-13h21z"/>
  </g>
</svg>
